<?xml version="1.0" encoding="utf-8"?>
<!-- Generator: Adobe Illustrator 19.0.0, SVG Export Plug-In . SVG Version: 6.00 Build 0)  -->
<svg version="1.1" id="Layer_2" xmlns="http://www.w3.org/2000/svg" xmlns:xlink="http://www.w3.org/1999/xlink" x="0px" y="0px"
	 viewBox="0 0 40 40" style="enable-background:new 0 0 40 40;" xml:space="preserve">
<style type="text/css">
	.st0{fill:#FF0044;}
</style>
<path id="Email_1_" class="st0" d="M20,0C8.954,0,0,8.954,0,20c0,11.046,8.954,20,20,20h20V20C40,8.954,31.046,0,20,0z M31,25.268
	c0,1.845-1.496,3.341-3.341,3.341H13.13v-1.586h14.501c0.984,0,1.783-0.798,1.783-1.782v-8.025c0-0.594-0.413-0.533-0.672-0.3
	l-7.395,6.382c-0.734,0.659-1.86,0.608-2.532-0.114l-6.254-6.466l1.159-1.083l5.716,5.868c0.389,0.416,1.04,0.443,1.461,0.06
	c0,0,4.976-4.423,6.361-5.61C28.643,14.764,31,15.096,31,16.865V25.268z M31,12.978H10.586v15.631H9V12.877
	c0-0.821,0.665-1.486,1.486-1.486H31V12.978z"/>
</svg>
