<?xml version="1.0" encoding="utf-8"?>
<!-- Generator: Adobe Illustrator 19.0.0, SVG Export Plug-In . SVG Version: 6.00 Build 0)  -->
<svg version="1.1" id="Layer_2" xmlns="http://www.w3.org/2000/svg" xmlns:xlink="http://www.w3.org/1999/xlink" x="0px" y="0px"
	 viewBox="0 0 40 40" style="enable-background:new 0 0 40 40;" xml:space="preserve">
<style type="text/css">
	.st0{fill:#01A093;}
</style>
<g id="Work_Experience_1_">
	<rect id="XMLID_20_" x="17.5" y="10.625" class="st0" width="5" height="2.5"/>
	<path id="XMLID_16_" class="st0" d="M5,0C2.239,0,0,2.239,0,5v35h35c2.761,0,5-2.239,5-5V0H5z M32.5,29.375
		c0,1.388-1.113,2.5-2.5,2.5H10c-1.388,0-2.5-1.112-2.5-2.5l0.012-13.75c0-1.388,1.1-2.5,2.488-2.5h5v-2.5
		c0-1.388,1.112-2.5,2.5-2.5h5c1.387,0,2.5,1.112,2.5,2.5v2.5h5c1.387,0,2.5,1.112,2.5,2.5V29.375z"/>
</g>
</svg>
