<?xml version="1.0" encoding="utf-8"?>
<svg version="1.1" xmlns="http://www.w3.org/2000/svg">
    <symbol id="twitter">
        <path d="M35.121,7.953c-0.3,13.808-9.005,23.414-22.213,24.014C7.504,32.267,3.602,30.466,0,28.365
            c3.902,0.6,9.005-0.9,11.707-3.302c-3.902-0.3-6.304-2.401-7.504-5.703c1.201,0.3,2.401,0,3.302,0
            c-3.602-1.201-6.004-3.302-6.304-8.105c0.901,0.6,2.101,0.901,3.302,0.901C1.801,10.654,0,4.951,2.101,1.349
            c3.902,4.203,8.705,7.805,16.51,8.405C16.51,1.349,27.917-3.154,32.419,2.55c2.101-0.3,3.602-1.201,5.103-1.801
            c-0.6,2.101-1.801,3.302-3.302,4.503c1.501-0.3,3.002-0.6,4.203-1.201C38.123,5.551,36.622,6.752,35.121,7.953z" />
    </symbol>
    <symbol id="github">
        <path d="m8 2e-3c-4.418 0-8 3.582-8 8 0 3.535 2.292 6.533 5.471 7.591 0.4 0.074 0.547-0.174 0.547-0.385
            0-0.191-8e-3 -0.821-0.011-1.489-2.226 0.484-2.695-0.944-2.695-0.944-0.364-0.925-0.888-1.171-0.888-1.171-0.726-0.497
            0.055-0.486 0.055-0.486 0.803 0.056 1.226 0.824 1.226 0.824 0.714 1.223 1.872 0.869 2.328 0.665 0.072-0.517
            0.279-0.87 0.508-1.07-1.777-0.202-3.645-0.888-3.645-3.954 0-0.873 0.313-1.587 0.824-2.147-0.083-0.202-0.357-1.015
            0.077-2.117 0 0 0.672-0.215 2.201 0.82 0.638-0.177 1.322-0.266 2.002-0.269 0.68 3e-3 1.365 0.092 2.004
            0.269 1.527-1.035 2.198-0.82 2.198-0.82 0.435 1.102 0.162 1.916 0.079 2.117 0.513 0.56 0.823 1.274 0.823 2.147 0
            3.073-1.872 3.749-3.653 3.947 0.287 0.248 0.543 0.735 0.543 1.481 0 1.07-9e-3 1.932-9e-3 2.195 0 0.213 0.144 0.462
            0.55 0.384 3.177-1.059 5.466-4.057 5.466-7.59 0-4.418-3.582-8-8-8z" />
    </symbol>
</svg>