<?xml version="1.0" encoding="utf-8"?>
<!-- Generator: Adobe Illustrator 19.0.0, SVG Export Plug-In . SVG Version: 6.00 Build 0)  -->
<svg version="1.1" id="Layer_2" xmlns="http://www.w3.org/2000/svg" xmlns:xlink="http://www.w3.org/1999/xlink" x="0px" y="0px"
	 viewBox="0 0 31.799 32" style="enable-background:new 0 0 31.799 32;" xml:space="preserve">
<style type="text/css">
	<!-- .st0{fill:#FF0044;} -->
	.st0{fill:#FFFFFF;}
</style>
<path id="Linkedin_1_" class="st0" d="M29.448,0H2.35C1.053,0,0,1.027,0,2.292v27.416C0,30.974,1.053,32,2.35,32h27.098
	c1.298,0,2.35-1.026,2.35-2.292V2.292C31.799,1.027,30.746,0,29.448,0z M4.836,26.787v-14.45h4.803v14.45H4.836z M7.239,10.365
	L7.239,10.365H7.207c-1.612,0-2.654-1.11-2.654-2.496c0-1.418,1.074-2.497,2.717-2.497c1.643,0,2.654,1.079,2.685,2.497
	C9.956,9.255,8.913,10.365,7.239,10.365z M26.958,26.787h-4.802v-7.729c0-1.943-0.695-3.268-2.433-3.268
	c-1.327,0-2.117,0.893-2.464,1.757c-0.127,0.308-0.158,0.74-0.158,1.172v8.068h-4.802v0v0l0,0c0-0.009,0.063-13.094,0-14.449H17.1
	v2.048c0.638-0.985,1.777-2.387,4.329-2.387c3.16,0,5.529,2.065,5.529,6.503V26.787z"/>
</svg>
