<?xml version="1.0" encoding="utf-8"?>
<!-- Generator: Adobe Illustrator 22.0.0, SVG Export Plug-In . SVG Version: 6.00 Build 0)  -->
<svg version="1.1" id="Logo" xmlns="http://www.w3.org/2000/svg" xmlns:xlink="http://www.w3.org/1999/xlink" x="0px" y="0px"
	 viewBox="0 0 83.941 91" style="enable-background:new 0 0 83.941 91;" xml:space="preserve">
<style type="text/css">
	.st0{fill:#FFFFFF;}
</style>
<path class="st0" d="M36.053,12c-2.757,0-5-2.243-5-5V5c0-2.757,2.243-5,5-5h9.931v12H36.053z"/>
<path class="st0" d="M50.355,84l-0.031-2V0h25.859l6.787,6.787c0.739,0.739,1.129,1.799,0.91,2.821
	C83.575,11.035,82.344,12,80.941,12H65.48v72H50.355z"/>
<path class="st0" d="M36.053,16c-2.761,0-5,2.239-5,5v19.857H14.932V7h-8.36C2.942,7,0,9.942,0,13.571V91h6.725
	c4.198,0,7.714-3.181,8.131-7.359l0.076-0.757V52.693h16.121v27.14v2.951V84h0.244h2.458h12.229V16H36.053z"/>
</svg>
