<?xml version="1.0" encoding="utf-8"?>
<!-- Generator: Adobe Illustrator 19.0.0, SVG Export Plug-In . SVG Version: 6.00 Build 0)  -->
<svg version="1.1" id="Layer_2" xmlns="http://www.w3.org/2000/svg" xmlns:xlink="http://www.w3.org/1999/xlink" x="0px" y="0px"
	 viewBox="0 0 40 40" style="enable-background:new 0 0 40 40;" xml:space="preserve">
<style type="text/css">
	.st0{fill:#ff0044;}
</style>
<path id="Phone_1_" class="st0" d="M20,0C8.954,0,0,8.954,0,20c0,11.046,8.954,20,20,20h20V20C40,8.954,31.046,0,20,0z
	 M23.234,24.736l-0.633,1.481c0,0-2.781-1.61-5.08-3.909c-2.299-2.299-3.814-4.956-3.814-4.956l1.466-0.539
	c0,0,1.13,2.252,3.361,4.483C20.764,23.525,23.234,24.736,23.234,24.736z M30.524,26.924l-3.361,3.361
	c-0.496,0.496-1.199,0.725-1.891,0.616c-0.205-0.032-0.435-0.073-0.685-0.124c-2.052-0.279-6.088-1.323-9.967-5.203
	c-4.095-4.095-5.263-8.683-5.593-10.773c-0.109-0.693,0.12-1.396,0.616-1.892l3.361-3.361c0.784-0.784,2.106-0.568,2.6,0.425
	l2.594,5.216L16.9,15.83l-2.404-4.869c-0.14-0.283-0.516-0.345-0.739-0.122l-2.752,2.752c-0.287,0.287-0.441,0.681-0.425,1.087
	c0.047,1.191,0.399,3.478,2.118,6.237c0.706,1.053,1.623,2.189,2.814,3.38c4.121,4.121,7.854,4.918,9.648,5.039
	c0.244-0.005,0.436-0.022,0.571-0.039c0.177-0.022,0.35-0.078,0.501-0.173c0.09-0.057,0.174-0.123,0.251-0.2l2.752-2.752
	c0.223-0.223,0.161-0.599-0.122-0.739l-4.869-2.404l0.64-1.296l5.216,2.594C31.093,24.818,31.309,26.14,30.524,26.924z"/>
</svg>
