<?xml version="1.0" encoding="utf-8"?>
<svg version="1.1" xmlns="http://www.w3.org/2000/svg" viewBox="0 0 25.1 32">
<g fill="white">
	<path d="M17.852,20.483L5.601,17.512l0.594-2.45l12.251,2.971L17.852,20.483"/>
	<path d="M18.673,17.552L7.447,11.816l1.147-2.245l11.225,5.736L18.673,17.552"/>
	<path d="M20.402,14.516l-9.493-8.294l1.659-1.898l9.494,8.294L20.402,14.516"/>
	<path d="M23.014,11.846l-7.08-10.43L18.021,0L25.1,10.431L23.014,11.846"/>
	<path d="M17.655,23.548L5.068,22.861l0.137-2.518l12.588,0.687L17.655,23.548"/>
	<path d="M20.265,29.478V19.033h2.519L22.786,32H0l0.001-12.977h2.521v10.456L20.265,29.478"/>
	<path d="M5.033,24.446h12.692v2.521H5.033V24.446L5.033,24.446z"/>
</g>
</svg>
