<?xml version="1.0" encoding="utf-8"?>
<!-- Generator: Adobe Illustrator 19.0.0, SVG Export Plug-In . SVG Version: 6.00 Build 0)  -->
<svg version="1.1" id="Layer_2" xmlns="http://www.w3.org/2000/svg" xmlns:xlink="http://www.w3.org/1999/xlink" x="0px" y="0px"
	 viewBox="0 0 38.423 32" style="enable-background:new 0 0 38.423 32;" xml:space="preserve">
<style type="text/css">
	<!-- .st0{fill:#FF0044;} -->
	.st0{fill:#FFFFFF;}
</style>
<path id="Twitter_1_" class="st0" d="M35.121,7.953c-0.3,13.808-9.005,23.414-22.213,24.014C7.504,32.267,3.602,30.466,0,28.365
	c3.902,0.6,9.005-0.9,11.707-3.302c-3.902-0.3-6.304-2.401-7.504-5.703c1.201,0.3,2.401,0,3.302,0
	c-3.602-1.201-6.004-3.302-6.304-8.105c0.901,0.6,2.101,0.901,3.302,0.901C1.801,10.654,0,4.951,2.101,1.349
	c3.902,4.203,8.705,7.805,16.51,8.405C16.51,1.349,27.917-3.154,32.419,2.55c2.101-0.3,3.602-1.201,5.103-1.801
	c-0.6,2.101-1.801,3.302-3.302,4.503c1.501-0.3,3.002-0.6,4.203-1.201C38.123,5.551,36.622,6.752,35.121,7.953z"/>
</svg>
